<svg enable-background="new 0 0 512 512" height="512" viewBox="0 0 512 512" width="512" xmlns="http://www.w3.org/2000/svg"><g id="Layer_2"><g><g><path d="m305.382782 256.2597656 65.8489685 66.147461h-24.5092774l-67.3565063-66.1433106z" fill="#edf8f9"/></g><g><path d="m433.4833984 78.7773438c-47.4082031-47.4082032-110.4394531-73.5175782-177.4833984-73.5175782-63.4609375 0-124.0385742 23.7548828-170.5703125 66.8857422l-.9995117.9296875c-3.9418945 3.6943359-7.8071289 7.5566406-11.487793 11.4785156l-.7114258.7646484c-43.3544922 46.5869141-67.230957 107.2949219-67.230957 170.9414063 0 67.046875 26.1088867 130.0800781 73.5170898 177.4873047 47.4067383 47.4052735 110.4384766 73.5126953 177.4829102 73.5126953 60.671875 0 119.2402344-21.9433594 164.9179688-61.7880859.0107422-.0087891.0205078-.0175781.03125-.0263672 1.8964844-1.65625 3.8544922-3.4248047 5.9951172-5.4150391l.7597656-.7070312c.0019531-.0019531.0048828-.0048828.0078125-.0068359 3.9287109-3.6875 7.7880859-7.5498047 11.4716797-11.4814453l.9326172-1.0029297c43.1308593-46.5332032 66.883789-107.1103516 66.883789-170.5722657 0-67.0429687-26.1083984-130.0742187-73.5166016-177.4824218zm-177.4833984 384.4824218c-114.1401367 0-207-92.859375-207-207 0-47.3212891 16.3305664-93.2900391 46.0913086-130.0556641l290.9663086 290.9667969c-36.7646484 29.7587891-82.734375 46.0888672-130.0576172 46.0888672zm161.1425781-77.2304687-290.9106445-290.9101563c36.7167969-29.6132812 82.5805664-45.859375 129.7680664-45.859375 114.140625 0 207 92.859375 207 207 0 47.1904297-16.2451172 93.0546875-45.8574219 129.7695313z" fill="#00b7ff"/></g><g><path d="m49 256.2597656c0-47.3212891 16.3305664-93.2900391 46.0913086-130.0556641l199.6445312 199.6450195c8.4604492-12.4326172 16.4226074-25.230957 23.8615723-38.3647461l-192.3654785-192.3652343c36.7167969-29.6132812 82.5805664-45.859375 129.7680664-45.859375 48.4260254 0 93.0166016 16.7207031 128.3149414 44.684082 2.3320312-16.6464844 3.9100342-33.534668 4.7159424-50.6245117-39.5045166-24.7856445-85.2457276-38.0595703-133.0308838-38.0595703-63.4609375 0-124.0385742 23.7548828-170.5703125 66.8857422l-.9995117.9296875c-3.9418945 3.6943359-7.8071289 7.5566406-11.487793 11.4785156l-.7114258.7646484c-43.3544922 46.5869141-67.230957 107.2949219-67.230957 170.9414063 0 67.046875 26.1088867 130.0800781 73.5170898 177.4873047 18.0583496 18.0576172 38.3890381 33.0146484 60.3400879 44.6259766 14.2062988-9.2207031 27.9626465-19.0756836 41.2229004-29.5327148-76.6912842-30.3398438-131.0800781-105.2275391-131.0800781-192.5805665z" fill="#2bc8f9"/></g><g fill="#046277"><path d="m413.2841797 208.8623047c-6.6074219-14.8359375-18.1181641-25.3515625-31.4609375-29.0419922.8671875-4.8701172 1.1992188-12.21875-2.2011719-19.4414062-3.7763672-8.0214844-11.0771484-13.8417969-21.6992188-17.2998047-16.9542236-5.5205078-22.0036621-12.0737305-23.5050049-15.5976562-.6804199-1.5966797-2.1942139-2.6787109-3.9154053-2.9042969-.046875-.0063477-.0941162-.0126953-.1414795-.0185547-3.7642822-.4956055-6.692749 3.2695312-5.2340088 6.7749023 2.5681152 6.1708984 9.8197021 14.7817383 29.7001953 21.253418 7.8564453 2.5585938 13.1425781 6.5869141 15.7099609 11.9726562 3.890625 8.1591797.5048828 17.1972656.4794922 17.265625-.7541504 1.9086914-.2791748 4.1357422 1.3349609 5.5844727.7928467.7114258 1.8225098 1.0922852 2.8776855 1.2373047 12.0817871 1.6630859 22.8817139 10.7260742 28.920166 24.2836914 5.9726562 13.4106445 6.0281982 28.1269531.3172607 38.3330078h-23.6794434c.5909424-6.7949219.1849365-17.8652344-6.6973877-26.703125-6.6289062-8.5117188-17.4560547-12.828125-32.1835938-12.828125-10.4775391 0-18.4726562-3.0722656-23.7636719-9.1308594-10.3974609-11.90625-7.8271484-31.8378906-7.8007812-32.0292969.2587891-1.8515625-.5507812-3.6865234-2.078125-4.7666016-1.5253906-1.0791016-3.5419922-1.2109375-5.2011719-.3496094-.7324219.3798828-18.1884766 9.1318359-37.2373047-6.3457031-8.4267578-6.8466797-11.1967773-13.6777344-13.6401367-19.7050781-3.5053711-8.6455078-7.1298828-17.5859375-25.6855469-17.5859375-2.7612305 0-5 2.2382812-5 5s2.2387695 5 5 5c11.8193359 0 13.1655273 3.3203125 16.4179688 11.3427734 2.6079102 6.4326172 6.1791992 15.2412109 16.6010742 23.7099609 16.1152344 13.09375 31.6035156 12.3300781 40.5126953 10.1669922.0859375 8.4560547 1.7792969 22.0253906 10.5371094 32.0917969 7.2744141 8.3613281 17.8183594 12.6015625 31.3378906 12.6015625 11.4570312 0 19.6201172 3.0048828 24.2607422 8.9296875 5.1601562 6.5883789 5.1118164 15.5849609 4.5682373 20.6015625h-71.4295654c-2.7617188 0-5 2.2382812-5 5s2.2382812 5 5 5h70.671875v56.1435547h-4.5283203c-2.7617188 0-5 2.2382812-5 5s2.2382812 5 5 5h41.4472656c2.7617188 0 5-2.2382812 5-5v-64.1606445c8.43335-13.0151367 9.0174564-32.2529297 1.3876957-49.3842773zm-11.3876953 108.5449219h-21.9189453v-56.1435547h21.9189453z"/><path d="m279.3662109 317.4072266h-109.4326171v-56.1435547h43.2890625c2.7612305 0 5-2.2382812 5-5s-2.2387695-5-5-5h-108.1191407c-2.7612305 0-5 2.2382812-5 5v66.1435547c0 2.7617188 2.2387695 5 5 5h174.2626953c2.7617188 0 5-2.2382812 5-5s-2.2382812-5-5-5zm-169.2626953-56.1435547h49.8300781v56.1435547h-49.8300781z"/></g><g><path d="m54.9282227 207.2324219c7.2109375-29.4526367 20.8569336-57.1782227 40.1630859-81.0283203l29.8525391 29.8525391c11.1384277-9.5708008 21.8886719-19.5795898 32.2249756-30.0004883l-30.9368896-30.9370117c26.8161621-21.6279297 58.513916-36.1152344 92.0405273-42.3613281 10.6126709-15.2382812 20.4719238-31.0395508 29.5268555-47.3491211-60.4626466 1.9545897-117.8469239 25.4682616-162.369629 66.7368163l-.9995117.9296875c-3.9418945 3.6943359-7.8071289 7.5566406-11.487793 11.4785156l-.7114258.7646484c-38.2851562 41.1396484-61.3679199 93.2929688-66.2456055 148.7558594 16.8103028-8.1328125 33.1401368-17.1005859 48.9428712-26.8417968z" fill="#79e0f7"/></g></g></g></svg>