<?xml version="1.0" standalone="no"?>
<!DOCTYPE svg PUBLIC "-//W3C//DTD SVG 20010904//EN"
 "http://www.w3.org/TR/2001/REC-SVG-20010904/DTD/svg10.dtd">
<svg version="1.0" xmlns="http://www.w3.org/2000/svg"
 width="300.000000pt" height="408.000000pt" viewBox="0 0 300.000000 408.000000"
 preserveAspectRatio="xMidYMid meet">
<metadata>
Created by potrace 1.16, written by Peter Selinger 2001-2019
</metadata>
<g transform="translate(0.000000,408.000000) scale(0.034884,-0.100000)"
fill="#000000" stroke="none">
<path d="M0 2040 l0 -2040 4300 0 c2860 0 4300 3 4300 10 0 6 -12 10 -26 10
-21 0 -25 3 -19 17 4 10 16 51 26 92 18 71 19 143 19 1938 0 1772 -1 1865 -17
1858 -10 -4 -67 -24 -128 -45 -60 -21 -188 -66 -283 -99 l-174 -61 24 29 c13
17 28 30 34 30 7 1 15 12 18 26 4 14 11 25 17 25 16 0 119 109 119 126 0 8 7
14 15 14 8 0 15 -5 15 -10 0 -6 13 4 29 22 l29 33 151 3 151 3 0 30 0 29
-4300 0 -4300 0 0 -2040z m3612 1975 c6 -7 -104 -235 -132 -276 -23 -31 -26
-53 -7 -46 6 2 12 10 12 18 0 8 17 43 37 79 19 36 54 102 77 147 40 80 41 82
76 80 39 -2 42 -9 48 -112 2 -31 4 -19 5 33 1 45 4 82 7 82 3 0 13 -4 23 -10
9 -5 43 -12 75 -15 43 -5 57 -10 53 -20 -6 -16 6 -21 64 -24 29 -1 51 -9 63
-22 18 -20 33 -26 23 -10 -3 5 6 8 20 7 l26 -1 -6 -100 -5 -100 15 65 c8 36
14 83 13 105 -1 58 0 62 16 41 14 -19 15 -19 15 7 0 27 0 27 29 13 41 -22 211
-2 211 24 0 5 -4 10 -9 12 -5 2 -3 9 5 16 12 11 14 -1 16 -80 2 -82 2 -85 5
-25 4 64 16 86 30 51 6 -15 8 -15 20 2 12 16 13 16 13 1 0 -20 16 -23 23 -4 2
7 20 -2 48 -27 125 -110 189 -172 189 -183 0 -7 5 -13 10 -13 24 0 5 28 -67
95 -42 39 -73 76 -70 82 4 6 0 10 -10 9 -10 0 -17 7 -18 22 -2 31 21 28 54 -8
25 -28 29 -29 47 -15 10 8 29 15 42 15 18 0 22 6 22 29 0 24 -5 30 -32 36 -18
5 -53 8 -78 7 l-45 -1 45 9 c54 10 368 11 500 0 l95 -7 -100 -3 c-55 -1 -129
-6 -165 -10 l-65 -7 55 -2 c72 -2 206 -36 202 -50 -1 -6 3 -11 10 -11 9 0 9
-3 0 -12 -17 -17 -15 -25 8 -31 20 -5 24 -11 34 -58 3 -16 15 -29 27 -32 16
-4 20 -11 16 -26 -3 -15 1 -21 17 -24 15 -3 13 -5 -8 -6 -28 -1 -29 -2 -10
-16 18 -14 18 -14 -5 -15 -13 0 -22 -3 -18 -6 8 -8 1206 -6 1569 2 146 4 279
3 295 -1 l28 -8 -25 -7 c-14 -3 -40 -3 -59 1 -19 4 -57 5 -85 1 -50 -6 -51 -6
-16 -13 27 -5 20 -7 -35 -8 -137 -4 -111 -19 34 -20 79 0 146 -2 149 -5 3 -3
-57 -6 -134 -6 -76 0 -206 -3 -289 -5 -184 -7 -1363 -25 -1572 -25 -131 0
-152 -2 -147 -15 5 -13 -19 -15 -185 -15 -105 0 -191 3 -191 8 0 4 -62 6 -137
4 -76 -2 -444 2 -817 8 -374 6 -682 7 -685 3 -3 -4 -109 -6 -236 -3 -126 3
-225 7 -220 8 6 1 3 7 -5 12 -12 8 -10 10 10 11 14 0 19 3 12 6 -6 2 -9 10 -5
15 4 8 -8 9 -40 5 -29 -4 -47 -3 -47 3 0 6 58 10 148 11 81 0 156 4 167 9 11
5 15 9 9 9 -7 1 -14 16 -17 34 -15 84 -21 103 -40 119 -21 19 -17 48 8 48 8 0
15 9 15 20 0 11 -5 20 -11 20 -5 0 -7 5 -4 11 4 6 -3 13 -16 17 l-24 6 25 7
c23 6 23 7 3 8 -27 1 -40 19 -20 27 46 17 155 22 553 23 242 0 443 -1 446 -4z
m288 -465 c338 -6 761 -10 940 -10 179 0 355 -3 391 -6 l67 -7 -42 -22 c-22
-13 -70 -39 -106 -59 -63 -34 -68 -36 -172 -36 -100 0 -107 -1 -105 -20 1 -11
7 -22 14 -25 11 -4 11 0 2 18 -12 21 -11 21 6 7 11 -9 16 -10 11 -2 -6 9 17
12 101 11 73 0 102 -3 88 -9 -14 -7 -9 -8 18 -4 22 4 43 2 51 -5 11 -9 15 -7
19 9 5 18 13 20 104 20 54 1 242 3 418 6 292 6 318 5 306 -10 -8 -10 -29 -16
-54 -16 -52 0 -45 -6 17 -14 33 -5 46 -4 41 3 -4 7 6 11 27 11 23 0 29 -3 19
-9 -7 -5 -11 -13 -8 -19 4 -5 -4 -8 -16 -8 -12 1 -27 -1 -32 -5 -17 -12 -1376
-44 -1584 -37 -155 5 -100 14 96 16 103 2 189 5 192 7 2 3 -107 5 -243 5 -195
0 -246 3 -240 13 6 9 4 9 -8 -1 -23 -19 -961 -13 -980 6 -10 10 -6 11 20 8 18
-2 32 1 32 5 0 9 -14 13 -37 10 -17 -2 -25 16 -12 25 8 4 9 3 5 -4 -4 -7 -3
-12 2 -12 19 0 21 14 5 32 -14 16 -33 18 -168 18 l-152 0 -7 31 c-3 17 -6 46
-6 65 l0 33 183 -5 c100 -2 459 -9 797 -14z m-956 -160 c17 -6 26 -6 26 0 0 6
9 10 20 10 22 0 27 -15 8 -24 -7 -3 0 -4 16 -1 26 6 27 5 12 -10 -9 -9 -13
-22 -9 -28 4 -7 9 -4 14 9 4 10 8 13 8 7 1 -9 20 -13 64 -12 46 1 56 3 37 9
-21 7 -22 8 -5 9 11 1 31 4 45 7 20 4 22 3 10 -5 -8 -6 -10 -11 -5 -11 6 0 3
-5 -5 -11 -11 -7 3 -9 50 -8 253 6 1020 -2 1020 -11 0 -8 -102 -9 -322 -5
-315 6 -1634 13 -2472 14 -231 1 -417 4 -414 7 3 3 68 6 145 6 76 0 142 2 146
5 16 10 147 8 147 -2 0 -6 4 -5 8 1 10 15 77 30 68 15 -11 -17 10 -13 24 4 13
16 40 21 40 7 0 -4 -5 -13 -12 -20 -9 -9 -9 -12 0 -12 7 0 12 5 12 11 0 5 5 7
10 4 6 -3 10 1 10 9 0 9 4 16 10 16 5 0 7 -6 4 -14 -4 -10 2 -12 23 -10 24 4
25 3 8 -5 -17 -8 -16 -10 12 -10 17 -1 35 3 38 9 4 6 -1 7 -12 3 -16 -6 -16
-5 -4 11 12 14 27 17 80 15 48 -2 65 0 64 9 -4 15 1041 18 1081 2z m3131 -348
c12 -104 16 -43 5 83 -6 70 -9 130 -6 133 3 2 13 -1 21 -8 20 -17 38 -1 38 34
0 21 2 23 17 14 26 -16 37 -108 16 -124 -20 -14 -20 -24 -2 -24 7 0 16 -10 20
-22 10 -38 7 -51 -9 -44 -8 3 -15 0 -16 -7 0 -7 -4 -3 -9 8 -11 25 -11 -1 0
-35 5 -15 8 -18 9 -9 1 21 31 34 31 14 0 -8 -4 -15 -10 -15 -5 0 -10 -5 -10
-11 0 -5 5 -7 10 -4 9 5 17 -113 12 -165 -4 -32 11 -112 18 -101 8 13 20 -42
20 -91 0 -42 -18 -34 -23 10 -3 34 -4 33 -5 -10 -2 -39 1 -48 16 -49 15 -1 15
-2 -2 -6 -15 -4 -17 -11 -12 -41 3 -21 6 -58 6 -84 0 -36 4 -48 15 -48 8 0 15
-5 15 -12 0 -6 -3 -8 -7 -5 -3 4 -11 3 -17 -2 -8 -7 -9 -72 -5 -218 4 -114 10
-329 13 -478 4 -148 9 -312 12 -362 4 -55 2 -93 -3 -93 -6 0 -13 84 -17 192
-7 221 -16 328 -26 328 -9 0 -6 -157 4 -187 4 -13 4 -23 -1 -23 -4 0 -8 -33
-7 -73 1 -94 -14 -136 -17 -47 -1 36 -3 70 -4 75 -2 6 -3 22 -4 38 0 15 -6 27
-11 27 -7 0 -9 -16 -5 -42 4 -24 3 -40 0 -36 -4 4 -11 33 -16 65 -5 40 -6 14
-3 -82 12 -384 16 -520 18 -525 4 -15 -107 -10 -454 21 -277 24 -260 25 -260
-8 0 -32 -33 -109 -58 -136 -9 -10 -12 -18 -7 -17 27 6 45 -2 45 -19 0 -10 9
-29 20 -43 17 -22 29 -26 107 -32 48 -3 115 -11 148 -16 33 -5 87 -12 119 -15
37 -4 54 -10 46 -15 -7 -5 -36 -6 -64 -3 -28 3 -66 5 -83 4 -18 -1 -33 4 -33
9 0 6 -19 10 -42 10 -24 0 -59 4 -79 9 -21 5 -43 4 -53 -1 -11 -6 -16 -5 -16
3 0 6 -6 9 -13 6 -13 -5 -285 28 -318 38 -28 9 -76 -24 -110 -75 -27 -41 -28
-45 -12 -52 18 -7 229 -36 318 -44 28 -2 83 -8 123 -14 40 -5 76 -10 78 -10 3
0 4 -45 3 -101 -1 -64 3 -105 10 -112 6 -6 11 -43 11 -83 l0 -72 -43 -6 c-47
-7 -85 3 -105 26 -13 17 -89 16 -838 -2 -215 -6 -445 -10 -511 -10 l-121 0 -1
174 -2 174 28 6 c15 3 116 15 223 26 246 26 270 29 270 42 0 18 -62 88 -92
104 -21 11 -33 12 -42 5 -7 -6 -24 -11 -37 -10 -13 0 -64 -4 -113 -10 -49 -5
-93 -8 -97 -5 -4 2 -10 0 -14 -6 -3 -5 -17 -10 -31 -10 -14 0 -22 4 -19 10 7
11 -8 14 -19 3 -6 -6 -27 -9 -141 -17 -22 -1 -47 -5 -55 -8 -40 -15 -132 -29
-152 -23 -21 7 -20 5 7 -25 l30 -32 -30 -24 c-43 -35 -75 -67 -75 -76 0 -19
36 -5 78 29 40 33 46 35 57 20 8 -12 27 -17 59 -17 l46 0 0 -164 c0 -90 2
-170 3 -178 2 -7 2 -10 0 -5 -3 4 -83 7 -179 7 -96 0 -174 1 -174 3 0 8 53
133 60 142 9 10 50 115 50 126 0 4 -20 12 -45 19 -52 14 -75 37 -29 27 16 -3
37 -9 47 -12 17 -7 22 6 18 45 -2 13 -1 13 8 0 9 -13 11 -12 16 1 3 9 5 20 4
25 -3 19 1 35 9 31 4 -3 8 11 9 31 1 37 1 37 -7 7 -5 -16 -23 -46 -40 -65
l-30 -35 21 40 22 40 -27 -30 -26 -30 20 45 c24 54 25 70 5 70 -8 0 -15 7 -15
15 0 8 -6 15 -14 15 -8 0 -18 5 -21 10 -9 14 39 2 86 -21 20 -10 39 -16 42
-13 2 3 92 14 198 25 187 19 195 21 217 47 12 15 21 35 18 44 -2 10 -1 17 3
16 29 -3 30 5 7 45 -13 23 -29 61 -36 85 l-11 42 -50 0 c-27 0 -91 -4 -142 -9
-51 -6 -162 -15 -248 -22 -154 -11 -156 -12 -151 -35 5 -27 -15 -94 -29 -94
-5 0 -2 16 6 36 25 61 17 71 -12 13 -23 -44 -25 -55 -13 -57 8 -2 20 -8 25
-14 11 -11 -43 -2 -80 13 -18 7 -17 8 7 8 32 1 41 14 44 62 2 41 -23 64 -58
53 -12 -4 -18 -2 -14 4 3 5 -3 12 -15 15 -11 3 -22 0 -24 -6 -2 -7 -29 -82
-59 -167 -30 -85 -87 -254 -127 -375 -40 -121 -78 -225 -85 -231 -8 -6 -11
-13 -9 -16 3 -3 -5 -38 -18 -79 l-23 -74 -77 -3 c-66 -2 -76 -1 -71 13 5 11
-1 15 -20 15 -29 0 -35 -16 -8 -23 9 -3 1 -5 -19 -6 -33 -1 -37 2 -43 30 -3
17 -6 68 -6 113 0 46 -5 87 -11 93 -8 8 -8 17 0 31 14 27 14 45 -1 36 -13 -8
8 27 94 160 32 49 58 93 58 98 0 16 -52 28 -133 29 -45 1 -70 4 -54 6 l27 4 0
210 c0 187 -6 239 -23 197 -4 -9 -6 -10 -6 -1 -1 6 5 18 13 26 12 11 15 73 18
330 2 173 0 313 -4 310 -5 -2 -9 -91 -9 -196 -1 -106 -4 -183 -7 -172 l-5 20
-8 -20 c-5 -12 -8 16 -8 73 -1 70 -4 92 -15 92 -10 0 -13 42 -15 213 -5 542
-1 825 14 937 3 19 7 94 10 165 3 72 10 153 15 182 6 28 10 71 9 95 -2 24 -2
79 -1 124 l2 81 29 -5 c21 -3 33 -12 42 -34 12 -30 13 -30 21 -9 4 13 5 34 2
47 -8 30 4 32 16 2 6 -16 9 -18 9 -7 1 9 8 20 17 23 11 4 15 2 11 -8 -4 -9 3
-13 21 -13 14 0 32 -9 40 -19 14 -19 15 -19 8 0 -5 16 -3 17 16 10 13 -5 246
-11 518 -14 l495 -5 -490 -6 c-269 -3 39 -4 685 -2 646 1 1274 6 1395 10 l220
8 -160 5 -160 6 160 2 c108 2 155 5 145 12 -11 7 4 10 48 10 35 0 72 5 83 11
16 8 23 7 32 -6 9 -11 23 -14 51 -11 21 3 49 0 63 -5 20 -7 24 -7 20 5 -4 10
0 12 14 9 13 -4 19 0 20 13 1 11 6 -35 10 -101 4 -66 11 -144 14 -173z m-3508
238 c3 0 12 8 19 18 13 16 13 16 14 0 0 -10 -4 -18 -10 -18 -11 0 -13 -40 -3
-66 6 -16 7 -16 14 2 5 13 8 6 8 -23 1 -38 -10 -56 -22 -35 -2 4 -2 1 0 -6 1
-8 4 -37 4 -65 2 -48 2 -49 9 -17 l7 35 5 -35 c5 -34 5 -33 7 10 2 34 4 40 10
25 14 -35 6 -386 -9 -418 -10 -20 -11 -33 -4 -45 7 -11 8 -49 2 -107 -4 -49
-8 -153 -8 -229 -1 -95 -4 -136 -11 -129 -7 7 -8 99 -2 283 4 149 5 274 2 276
-11 6 -19 -276 -25 -873 -4 -315 -10 -573 -15 -573 -4 0 -6 -11 -3 -24 2 -13
0 -35 -5 -48 -7 -15 -11 83 -12 292 -3 382 -5 480 -13 500 -3 8 -7 31 -9 50
-3 19 -3 -3 -1 -50 2 -47 7 -204 10 -350 6 -230 5 -269 -9 -295 l-15 -30 -6
35 c-3 19 -8 71 -10 115 -7 113 -8 886 -1 893 3 3 5 -27 5 -66 0 -39 3 -73 8
-75 4 -3 4 41 1 96 -8 122 -7 116 -19 97 -15 -24 -12 6 4 38 7 15 16 47 19 72
5 34 4 39 -3 20 -7 -18 -9 0 -7 63 1 54 -2 86 -8 84 -15 -5 -33 -389 -35 -752
-1 -176 -4 -313 -6 -305 -2 8 -6 137 -8 285 -6 312 -14 445 -27 445 -5 0 -9
-8 -9 -17 0 -9 -2 -14 -5 -11 -10 10 -16 269 -7 302 5 18 5 42 0 55 -4 13 -9
54 -11 91 -1 38 -6 66 -10 63 -4 -3 -8 35 -8 84 1 150 -1 173 -11 167 -6 -4
-5 3 1 14 9 17 8 22 -7 26 -22 7 -24 72 -3 85 10 7 10 10 1 16 -7 4 -16 1 -21
-6 -7 -11 -9 -9 -9 7 0 13 8 24 20 27 11 3 18 1 15 -4 -3 -4 9 -12 27 -17 24
-6 35 -5 41 5 14 22 27 14 27 -16 0 -17 4 -32 9 -35 4 -3 7 11 6 32 -2 20 -1
31 2 25 3 -7 11 -13 18 -13 7 0 16 -7 19 -16 4 -9 4 -123 1 -253 -3 -160 -1
-226 5 -206 6 17 9 52 8 78 -1 27 4 52 10 56 6 4 11 20 11 36 -1 55 13 240 21
278 6 30 5 40 -6 44 -12 4 -12 8 -2 21 12 13 13 13 16 -1 2 -10 6 -17 9 -17z
m5247 -487 c3 -159 -3 -226 -25 -278 -5 -12 -6 0 -2 33 4 35 2 52 -6 52 -6 0
-11 12 -10 28 0 24 1 25 9 7 9 -20 5 40 -9 157 -9 65 -6 234 5 358 l8 85 13
-135 c7 -74 15 -213 17 -307z m-1533 282 c20 -78 18 -231 -3 -265 -7 -10 -9
-23 -5 -27 5 -4 12 -1 17 7 6 9 7 -16 3 -65 -4 -44 -6 -89 -5 -100 3 -49 4
-164 2 -210 -3 -46 -3 -44 -11 25 -13 119 -37 464 -43 593 -4 105 -3 118 12
115 10 -2 22 -26 33 -73z m670 -2015 c5 0 80 -106 166 -235 141 -213 156 -238
147 -262 -11 -33 -56 -50 -90 -35 -13 7 -77 92 -153 205 -128 192 -143 208
-203 219 -14 2 -11 11 18 51 35 48 67 70 92 61 8 -2 18 -4 23 -4z m-87 -163
c33 -24 21 -54 -84 -211 -108 -164 -125 -179 -179 -160 -14 5 -30 21 -35 35
-8 23 3 44 94 180 57 85 108 157 114 161 18 12 71 9 90 -5z m-724 -98 c0 -21
-4 -28 -12 -23 -10 6 -10 5 -1 -7 8 -10 12 -65 13 -169 1 -181 0 -195 -10
-155 -7 29 -8 29 -9 -9 0 -22 -4 -36 -8 -33 -3 4 -12 2 -20 -4 -11 -10 -13 20
-13 173 0 171 1 186 20 203 11 10 22 26 25 36 9 28 15 23 15 -12z m-2682 -67
l39 -18 -54 -124 c-29 -69 -67 -152 -82 -185 -16 -33 -32 -71 -36 -85 -4 -14
-18 -46 -31 -72 -19 -38 -30 -48 -49 -48 -14 0 -25 3 -25 7 0 4 13 43 29 87
16 45 60 165 97 269 36 103 68 187 69 187 2 0 21 -8 43 -18z m2601 -2 c-14 -8
-15 -29 -13 -142 2 -80 8 -134 14 -136 5 -2 10 -16 9 -30 l-1 -27 -8 25 c-6
19 -8 11 -9 -32 -1 -34 -5 -58 -12 -58 -5 0 -8 3 -5 8 2 4 1 23 -4 42 -7 32
-8 30 -9 -22 -1 -65 -18 -79 -24 -20 -2 25 -4 16 -5 -26 -2 -57 0 -63 22 -73
14 -7 36 -9 49 -5 24 6 25 9 23 78 -1 62 2 73 17 76 15 3 17 -6 17 -87 l0 -90
-50 -7 c-40 -5 -50 -10 -48 -23 2 -9 11 -15 21 -15 15 2 22 -14 18 -38 0 -5 3
-8 8 -8 5 0 12 13 16 29 4 20 11 28 23 26 9 -2 23 -4 30 -4 8 -1 12 -17 10
-48 l-1 -48 -6 45 c-5 35 -8 39 -11 20 -3 -14 -11 -26 -17 -26 -7 -1 -18 -2
-23 -3 -6 0 -10 -9 -8 -19 2 -13 -5 -18 -29 -20 -26 -3 -33 -8 -33 -24 0 -14
5 -18 15 -14 8 3 15 1 15 -4 0 -6 -18 -10 -40 -10 l-39 0 -3 112 c-3 106 -4
114 -25 123 -24 10 -33 28 -10 19 9 -3 14 7 15 31 2 29 -1 35 -17 35 -17 0
-20 -10 -26 -87 -3 -49 -8 -94 -11 -101 -7 -23 -24 -2 -24 29 0 26 -3 29 -20
24 -54 -17 -120 26 -120 77 0 37 -18 36 -34 -4 -13 -31 -14 -30 -18 38 -3 38
-1 76 3 84 5 10 8 11 9 3 0 -10 35 -13 143 -13 80 0 136 4 129 9 -8 4 -24 7
-38 5 -33 -3 -30 14 4 19 15 2 -37 5 -115 6 l-143 1 0 69 0 69 43 -5 c41 -4
43 -3 70 41 39 62 65 79 182 114 93 28 131 32 94 12z m459 -363 c7 -8 15 -30
15 -48 l2 -34 -67 -3 c-70 -3 -79 -9 -52 -36 18 -19 44 -20 79 -4 31 14 47 1
21 -18 -26 -19 -96 -18 -124 2 -18 12 -22 25 -22 68 0 53 12 74 50 89 23 10
82 -1 98 -16z m437 11 c30 -14 37 -36 33 -109 l-3 -54 -62 -3 c-52 -2 -66 1
-83 18 -27 27 -25 44 6 69 18 14 41 21 70 21 46 0 54 9 29 30 -10 8 -31 11
-60 7 -48 -7 -62 7 -22 23 31 12 62 12 92 -2z m364 6 l31 -6 0 -92 c0 -103
-12 -130 -59 -141 -32 -7 -101 17 -101 36 0 7 8 9 23 4 52 -16 74 -16 90 0 26
26 21 31 -34 31 -62 0 -89 25 -89 83 0 72 50 103 139 85z m228 -17 c8 -8 16
-30 16 -48 l2 -34 -67 -3 c-52 -2 -68 -6 -68 -18 0 -25 46 -39 84 -26 40 15
46 15 46 1 0 -17 -70 -41 -99 -34 -46 12 -61 33 -61 90 0 51 12 78 40 89 24 9
92 -1 107 -17z m861 -4 c8 -12 12 -41 10 -83 l-3 -65 -59 -3 c-65 -3 -96 14
-96 54 0 32 36 54 88 54 36 0 43 3 40 18 -3 14 -14 17 -61 15 -59 -2 -74 10
-34 27 32 14 99 4 115 -17z"/>
<path d="M3547 3413 c-9 -9 -46 -26 -83 -39 l-68 -23 46 2 c25 1 44 5 41 9 -2
5 4 8 14 9 10 1 33 2 51 4 18 1 35 -1 38 -6 3 -5 10 -9 17 -9 6 0 1 7 -11 16
-18 13 -21 19 -11 30 8 10 36 14 97 14 47 0 83 -3 80 -6 -4 -3 -42 -5 -87 -5
-45 0 -83 -4 -87 -10 -4 -7 7 -8 33 -5 30 5 34 4 18 -4 -16 -8 -11 -9 23 -6
23 2 40 1 38 -2 -2 -4 19 -8 47 -10 37 -1 48 1 37 8 -15 9 -3 11 88 13 12 1
22 7 22 14 0 7 5 13 10 13 6 0 10 -7 10 -15 0 -17 16 -20 25 -6 14 24 -41 32
-204 31 -138 -1 -171 -4 -184 -17z"/>
<path d="M5170 3239 c-234 -3 -825 -8 -1315 -9 -490 -2 -816 -7 -725 -10 183
-7 1850 -3 1945 5 33 3 200 5 371 5 171 1 324 5 340 10 33 9 21 9 -616 -1z"/>
<path d="M3805 1560 c-239 -6 -239 -6 -67 -8 132 -1 172 -5 172 -15 0 -7 11
-14 25 -15 14 -1 25 3 25 8 0 6 10 10 23 10 18 0 19 -2 7 -10 -12 -8 -10 -10
10 -10 19 0 22 -2 10 -10 -8 -5 -95 -10 -195 -10 -99 -1 -254 -6 -345 -10
-150 -8 -143 -8 80 -4 135 2 473 7 751 10 l506 7 6 -219 c9 -289 26 -765 32
-885 l4 -96 -24 5 c-14 2 -25 0 -25 -5 0 -16 49 -53 71 -53 25 0 57 29 42 38
-6 4 -14 25 -17 48 l-7 40 158 3 c87 1 160 5 163 7 3 3 -66 4 -153 2 -86 -2
-157 0 -157 4 0 5 3 7 8 7 28 -5 92 3 92 10 0 6 -23 7 -54 4 l-54 -6 -6 239
c-6 239 -10 356 -22 682 l-6 172 188 1 c104 1 230 4 279 8 50 4 -53 6 -229 4
l-318 -4 24 23 c22 23 29 24 208 27 102 1 187 5 189 7 6 6 -1096 1 -1394 -6z"/>
</g>
</svg>
